<svg width="620" height="620" viewBox="0 0 620 620" fill="none" xmlns="http://www.w3.org/2000/svg">
<path d="M231.091 9.15527e-05H50.7273C22.7114 9.15527e-05 0 22.7115 0 50.7274V231.091C0 259.107 22.7114 281.818 50.7273 281.818H231.091C259.107 281.818 281.818 259.107 281.818 231.091V50.7274C281.818 22.7115 259.107 9.15527e-05 231.091 9.15527e-05Z" fill="#1A1A1A"/>
<path d="M569.273 0H388.909C360.893 0 338.182 22.7114 338.182 50.7273V231.091C338.182 259.107 360.893 281.818 388.909 281.818H569.273C597.288 281.818 620 259.107 620 231.091V50.7273C620 22.7114 597.288 0 569.273 0Z" fill="#FF6B35"/>
<path d="M231.091 338.182H50.7273C22.7114 338.182 0 360.893 0 388.909V569.273C0 597.289 22.7114 620 50.7273 620H231.091C259.107 620 281.818 597.289 281.818 569.273V388.909C281.818 360.893 259.107 338.182 231.091 338.182Z" fill="#FF6B35"/>
<path d="M569.273 338.182H388.909C360.893 338.182 338.182 360.893 338.182 388.909V569.273C338.182 597.289 360.893 620 388.909 620H569.273C597.288 620 620 597.289 620 569.273V388.909C620 360.893 597.288 338.182 569.273 338.182Z" fill="#1A1A1A"/>
<path d="M150.577 73.5455H180.974V174.966C180.974 184.341 178.867 192.485 174.653 199.398C170.487 206.311 164.687 211.637 157.253 215.378C149.819 219.118 141.178 220.989 131.33 220.989C122.57 220.989 114.616 219.45 107.466 216.372C100.364 213.247 94.7292 208.512 90.5625 202.168C86.3958 195.776 84.3362 187.75 84.3835 178.091H114.994C115.089 181.926 115.87 185.217 117.338 187.963C118.853 190.662 120.913 192.745 123.517 194.213C126.169 195.634 129.294 196.344 132.892 196.344C136.68 196.344 139.876 195.539 142.48 193.929C145.132 192.272 147.144 189.857 148.517 186.685C149.89 183.512 150.577 179.606 150.577 174.966V73.5455Z" fill="white"/>
<path d="M207.194 460.469H176.086C175.518 456.444 174.358 452.869 172.606 449.744C170.854 446.572 168.605 443.873 165.859 441.648C163.112 439.422 159.94 437.718 156.342 436.534C152.79 435.35 148.932 434.759 144.765 434.759C137.236 434.759 130.679 436.629 125.092 440.369C119.504 444.063 115.172 449.46 112.094 456.563C109.017 463.618 107.478 472.188 107.478 482.273C107.478 492.642 109.017 501.354 112.094 508.409C115.219 515.464 119.576 520.791 125.163 524.389C130.75 527.988 137.213 529.787 144.552 529.787C148.671 529.787 152.483 529.243 155.986 528.154C159.538 527.064 162.686 525.478 165.433 523.395C168.179 521.264 170.451 518.684 172.251 515.654C174.097 512.623 175.376 509.167 176.086 505.284L207.194 505.426C206.389 512.102 204.377 518.542 201.157 524.744C197.985 530.9 193.7 536.416 188.302 541.293C182.951 546.122 176.559 549.957 169.126 552.798C161.739 555.592 153.382 556.989 144.055 556.989C131.081 556.989 119.481 554.053 109.254 548.182C99.0736 542.311 91.0244 533.812 85.1058 522.685C79.2346 511.558 76.299 498.087 76.299 482.273C76.299 466.411 79.282 452.917 85.2479 441.79C91.2138 430.663 99.3104 422.188 109.538 416.364C119.765 410.493 131.271 407.557 144.055 407.557C152.483 407.557 160.295 408.741 167.492 411.108C174.736 413.475 181.152 416.932 186.739 421.477C192.326 425.975 196.872 431.492 200.376 438.026C203.927 444.56 206.2 452.041 207.194 460.469Z" fill="white"/>
</svg>
