<svg width="197" height="101" viewBox="0 0 197 101" fill="none" xmlns="http://www.w3.org/2000/svg">
<g clip-path="url(#clip0_3_213)">
<path fill-rule="evenodd" clip-rule="evenodd" d="M3.13282 15.6941C0 21.8426 0 29.8914 0 45.9891V54.6121C0 70.7098 0 78.7587 3.13282 84.9072C5.88853 90.3156 10.2857 94.7127 15.6941 97.4684C21.8426 100.601 29.8914 100.601 45.9892 100.601H133.656C149.754 100.601 157.803 100.601 163.951 97.4684C169.359 94.7127 173.757 90.3156 176.512 84.9072C179.645 78.7587 179.645 70.7098 179.645 54.6121V45.9891C179.645 29.8914 179.645 21.8426 176.512 15.6941C173.757 10.2857 169.359 5.88853 163.951 3.13282C157.803 0 149.754 0 133.656 0H45.9891C29.8914 0 21.8426 0 15.6941 3.13282C10.2857 5.88853 5.88853 10.2857 3.13282 15.6941ZM196.594 48.9846C196.594 43.5925 192.223 39.2213 186.831 39.2213V60.7787C192.223 60.7787 196.594 56.4075 196.594 51.0153V48.9846Z" fill="#D1D1D1"/>
<rect width="150.902" height="100.601" transform="translate(0 -0.300644)" fill="#121212"/>
<path d="M65.7985 78.4649C61.3729 78.4649 57.4747 77.783 54.104 76.4193C50.7334 75.0556 48.096 73.1644 46.1919 70.7457C44.2879 68.3014 43.3359 65.4839 43.3359 62.2933V62.2161C43.3359 59.7975 43.8891 57.6232 44.9955 55.6935C46.1019 53.7637 47.62 52.1555 49.5498 50.869C51.4795 49.5825 53.6924 48.6948 56.1882 48.2059V47.9743C52.9719 47.1767 50.3603 45.6972 48.3533 43.5358C46.372 41.3487 45.3814 38.7628 45.3814 35.7781V35.7009C45.3814 32.8191 46.2434 30.2718 47.9673 28.059C49.6913 25.8204 52.0842 24.0579 55.1461 22.7714C58.2338 21.4849 61.7846 20.8416 65.7985 20.8416C69.8125 20.8416 73.3504 21.4849 76.4123 22.7714C79.4742 24.0579 81.8672 25.8204 83.5911 28.059C85.3408 30.2718 86.2156 32.8191 86.2156 35.7009V35.7781C86.2156 38.7628 85.2121 41.3487 83.2051 43.5358C81.2239 45.6972 78.6251 47.1767 75.4088 47.9743V48.2059C77.9047 48.6948 80.1175 49.5825 82.0473 50.869C83.9771 52.1555 85.4823 53.7637 86.563 55.6935C87.6694 57.6232 88.2226 59.7975 88.2226 62.2161V62.2933C88.2226 65.4839 87.2706 68.3014 85.3665 70.7457C83.4882 73.1644 80.8637 75.0556 77.493 76.4193C74.1223 77.783 70.2241 78.4649 65.7985 78.4649ZM65.7985 69.9738C67.8312 69.9738 69.6195 69.6136 71.1633 68.8932C72.7071 68.1727 73.9165 67.1692 74.7913 65.8827C75.6919 64.5962 76.1421 63.1424 76.1421 61.5214V61.4442C76.1421 59.7975 75.7047 58.3308 74.8299 57.0443C73.9551 55.7578 72.7329 54.7543 71.1633 54.0338C69.6195 53.2877 67.8312 52.9146 65.7985 52.9146C63.7401 52.9146 61.9261 53.2877 60.3565 54.0338C58.8127 54.7543 57.6034 55.7578 56.7285 57.0443C55.8537 58.3308 55.4163 59.7975 55.4163 61.4442V61.5214C55.4163 63.1424 55.8537 64.5962 56.7285 65.8827C57.6291 67.1692 58.8513 68.1727 60.3951 68.8932C61.9647 69.6136 63.7658 69.9738 65.7985 69.9738ZM65.7985 44.4621C67.5482 44.4621 69.092 44.1405 70.43 43.4972C71.768 42.854 72.8101 41.9663 73.5562 40.8341C74.3024 39.6763 74.6755 38.3512 74.6755 36.8588V36.7816C74.6755 35.2892 74.2896 33.977 73.5176 32.8448C72.7715 31.7127 71.7294 30.8379 70.3914 30.2203C69.0534 29.5771 67.5225 29.2554 65.7985 29.2554C64.0488 29.2554 62.505 29.5771 61.167 30.2203C59.8291 30.8379 58.7741 31.7127 58.0022 32.8448C57.256 33.977 56.8829 35.2892 56.8829 36.7816V36.8588C56.8829 38.3512 57.256 39.6763 58.0022 40.8341C58.7741 41.9663 59.8291 42.854 61.167 43.4972C62.505 44.1405 64.0488 44.4621 65.7985 44.4621ZM113.576 78.4649C108.868 78.4649 104.815 77.2941 101.419 74.9527C98.0224 72.6112 95.4107 69.292 93.5839 64.995C91.7827 60.6723 90.8822 55.5648 90.8822 49.6725V49.5953C90.8822 43.6773 91.7827 38.5699 93.5839 34.2729C95.4107 29.9759 98.0224 26.6695 101.419 24.3538C104.815 22.0123 108.868 20.8416 113.576 20.8416C118.285 20.8416 122.325 22.0123 125.695 24.3538C129.092 26.6695 131.703 29.9759 133.53 34.2729C135.357 38.5699 136.271 43.6773 136.271 49.5953V49.6725C136.271 55.5648 135.357 60.6723 133.53 64.995C131.703 69.292 129.092 72.6112 125.695 74.9527C122.325 77.2941 118.285 78.4649 113.576 78.4649ZM113.576 69.1247C115.892 69.1247 117.861 68.3528 119.482 66.809C121.103 65.2652 122.338 63.0395 123.187 60.132C124.062 57.2244 124.499 53.7379 124.499 49.6725V49.5953C124.499 45.5042 124.062 42.0177 123.187 39.1359C122.338 36.2284 121.103 34.0156 119.482 32.4975C117.861 30.9537 115.892 30.1817 113.576 30.1817C111.261 30.1817 109.279 30.9537 107.633 32.4975C106.012 34.0156 104.777 36.2284 103.927 39.1359C103.078 42.0177 102.654 45.5042 102.654 49.5953V49.6725C102.654 53.7379 103.078 57.2244 103.927 60.132C104.777 63.0395 106.012 65.2652 107.633 66.809C109.279 68.3528 111.261 69.1247 113.576 69.1247Z" fill="white"/>
</g>
<defs>
<clipPath id="clip0_3_213">
<rect width="196.594" height="100.601" rx="28.7432" fill="white"/>
</clipPath>
</defs>
</svg>
